<svg width="30" height="30" viewBox="0 0 30 30" fill="none" xmlns="http://www.w3.org/2000/svg">
<path d="M23.85 30H6.15002C2.76002 30 0 27.2401 0 23.8501V6.1499C0 2.7599 2.76002 0 6.15002 0H23.85C27.24 0 30 2.7599 30 6.1499V23.8501C30 27.2401 27.24 30 23.85 30Z" fill="#00C3FF"/>
<path d="M23.85 0H15V30H23.85C27.24 30 30 27.2401 30 23.8501V6.1499C30 2.7599 27.24 0 23.85 0Z" fill="#00AAF0"/>
<path d="M9.24001 23.1201C8.97001 23.5901 8.46999 23.8501 7.96999 23.8501C7.71999 23.8501 7.47001 23.7899 7.24001 23.6499C6.54001 23.2499 6.29997 22.3499 6.69997 21.6499L6.99001 21.1499H10.37L9.24001 23.1201Z" fill="white"/>
<path d="M6.46997 19.98C5.65997 19.98 5.01001 19.32 5.01001 18.52C5.01001 17.71 5.65997 17.0498 6.46997 17.0498H9.34998L13.3101 10.21L12.24 8.3501C11.83 7.6501 12.07 6.7501 12.77 6.3501C13.47 5.9401 14.37 6.18988 14.77 6.87988L15 7.27978L15.22 6.87988C15.63 6.18988 16.53 5.9401 17.22 6.3501C17.56 6.5401 17.81 6.86023 17.91 7.24023C18.01 7.62023 17.96 8.0101 17.76 8.3501L12.74 17.0498H15.91L17.6 19.98H6.46997Z" fill="white"/>
<path d="M23.52 19.98H22.33L23.3 21.6499C23.7 22.3499 23.46 23.2499 22.76 23.6499C22.54 23.7799 22.29 23.8501 22.03 23.8501C21.91 23.8501 21.78 23.8298 21.65 23.7998C21.27 23.6998 20.96 23.4501 20.76 23.1201L15.6801 14.3101L17.37 11.3799L20.64 17.0498H23.52C24.33 17.0498 24.99 17.71 24.99 18.52C24.99 19.32 24.33 19.98 23.52 19.98Z" fill="#F2F2F2"/>
<path d="M15 17.0498V19.98H17.6L15.91 17.0498H15Z" fill="#F2F2F2"/>
<path d="M17.91 7.24023C17.81 6.86023 17.57 6.5401 17.23 6.3501C16.53 5.9401 15.63 6.18988 15.23 6.87988L15 7.27978V13.1299L17.76 8.3501C17.96 8.0101 18.01 7.62023 17.91 7.24023Z" fill="#F2F2F2"/>
</svg>
