<svg width="37" height="37" viewBox="0 0 37 37" fill="none" xmlns="http://www.w3.org/2000/svg">
<path d="M18.642 0.27002C13.754 0.27002 13.14 0.289883 11.22 0.379883C9.304 0.469883 7.99601 0.769961 6.85101 1.20996C5.66801 1.66996 4.66299 2.29004 3.66299 3.29004C2.66199 4.29004 2.04699 5.28998 1.58499 6.47998C1.13899 7.61998 0.834993 8.9301 0.748993 10.8501C0.662993 12.7701 0.640991 13.38 0.640991 18.27C0.640991 23.16 0.661993 23.7699 0.748993 25.6899C0.837993 27.6099 1.141 28.9101 1.586 30.0601C2.046 31.2401 2.66099 32.25 3.66199 33.25C4.66199 34.25 5.666 34.8598 6.849 35.3198C7.994 35.7698 9.30299 36.0702 11.219 36.1602C13.139 36.2502 13.752 36.27 18.64 36.27C23.529 36.27 24.141 36.2502 26.061 36.1602C27.977 36.0702 29.286 35.7698 30.432 35.3198C31.615 34.8598 32.618 34.25 33.618 33.25C34.619 32.25 35.234 31.2401 35.696 30.0601C36.138 28.9101 36.442 27.6099 36.532 25.6899C36.618 23.7699 36.641 23.16 36.641 18.27C36.641 13.38 36.618 12.7701 36.532 10.8501C36.442 8.9301 36.138 7.61998 35.696 6.47998C35.234 5.28998 34.619 4.29004 33.618 3.29004C32.617 2.29004 31.616 1.66996 30.431 1.20996C29.283 0.769961 27.974 0.469883 26.058 0.379883C24.138 0.289883 23.527 0.27002 18.637 0.27002H18.642ZM17.028 3.50977C17.507 3.50977 18.042 3.50977 18.642 3.50977C23.448 3.50977 24.018 3.53012 25.916 3.62012C27.671 3.70012 28.623 3.99023 29.258 4.24023C30.098 4.56023 30.697 4.95008 31.326 5.58008C31.956 6.21008 32.346 6.8099 32.673 7.6499C32.92 8.2899 33.213 9.24023 33.293 10.9902C33.38 12.8902 33.398 13.46 33.398 18.27C33.398 23.07 33.38 23.64 33.293 25.54C33.213 27.29 32.92 28.2399 32.673 28.8799C32.347 29.7199 31.956 30.3202 31.326 30.9502C30.696 31.5802 30.098 31.97 29.258 32.29C28.624 32.54 27.671 32.8302 25.916 32.9102C24.018 33.0002 23.448 33.02 18.642 33.02C13.836 33.02 13.266 33.0002 11.369 32.9102C9.61399 32.8302 8.661 32.54 8.026 32.29C7.186 31.97 6.58599 31.5802 5.95599 30.9502C5.32599 30.3202 4.93601 29.7199 4.60901 28.8799C4.36301 28.2399 4.06901 27.29 3.98901 25.54C3.90301 23.64 3.88599 23.0698 3.88599 18.2598C3.88599 13.4498 3.90301 12.8902 3.98901 10.9902C4.07001 9.23023 4.36301 8.2799 4.60901 7.6499C4.93601 6.8099 5.32599 6.21008 5.95599 5.58008C6.58599 4.95008 7.186 4.55998 8.026 4.22998C8.661 3.97998 9.61399 3.68986 11.369 3.60986C13.029 3.52986 13.673 3.50977 17.028 3.50977ZM28.251 6.5C27.058 6.5 26.091 7.47016 26.091 8.66016C26.091 9.85016 27.058 10.8198 28.251 10.8198C29.443 10.8198 30.411 9.85016 30.411 8.66016C30.411 7.47016 29.443 6.5 28.251 6.5ZM18.642 9.02979C13.537 9.02979 9.39801 13.16 9.39801 18.27C9.39801 23.37 13.537 27.5098 18.642 27.5098C23.747 27.5098 27.885 23.37 27.885 18.27C27.885 13.16 23.747 9.02979 18.642 9.02979ZM18.642 12.27C21.956 12.27 24.642 14.96 24.642 18.27C24.642 21.58 21.956 24.27 18.642 24.27C15.328 24.27 12.642 21.58 12.642 18.27C12.642 14.96 15.328 12.27 18.642 12.27Z" fill="#E4E4E4"/>
</svg>
