<svg width="30" height="30" viewBox="0 0 30 30" fill="none" xmlns="http://www.w3.org/2000/svg">
<mask id="mask0_1_143" style="mask-type:luminance" maskUnits="userSpaceOnUse" x="0" y="0" width="30" height="30">
<path d="M30 0H0V30H30V0Z" fill="white"/>
</mask>
<g mask="url(#mask0_1_143)">
<path d="M22.403 10.2898C18.918 8.33983 13.324 5.20989 4.64801 0.349888C4.06301 -0.0301118 3.39002 -0.0803462 2.80902 0.109654L17.694 14.9998L22.403 10.2898Z" fill="#32BBFF"/>
<path d="M2.80902 0.109863C2.70002 0.149863 2.59398 0.19 2.49298 0.25C1.85098 0.6 1.37903 1.25986 1.37903 2.10986V27.8901C1.37903 28.7301 1.85098 29.4 2.49298 29.75C2.59398 29.8 2.70002 29.8499 2.80902 29.8799L17.695 15L2.80902 0.109863Z" fill="#32BBFF"/>
<path d="M17.695 15L2.80902 29.8799C3.39002 30.0799 4.06301 30.0401 4.64801 29.6401C13.062 24.9301 18.593 21.8401 22.118 19.8701C22.216 19.8201 22.313 19.77 22.408 19.71L17.695 15Z" fill="#32BBFF"/>
<path d="M1.37903 15V27.8901C1.37903 28.7301 1.85098 29.4 2.49298 29.75C2.59398 29.8 2.70002 29.8499 2.80902 29.8799L17.695 15H1.37903Z" fill="#2C9FD9"/>
<path d="M4.64801 0.350317C3.95301 -0.109683 3.134 -0.0897809 2.492 0.250219L17.468 15.2204L22.403 10.2903C18.918 8.34026 13.324 5.21032 4.64801 0.350317Z" fill="#29CC5E"/>
<path d="M17.469 14.77L2.492 29.75C3.134 30.09 3.95301 30.1101 4.64801 29.6401C13.062 24.9301 18.593 21.8401 22.118 19.8701C22.216 19.8201 22.312 19.77 22.407 19.71L17.469 14.77Z" fill="#D93F21"/>
<path d="M28.622 15C28.622 14.28 28.262 13.5602 27.547 13.1602C27.547 13.1602 26.211 12.4199 22.117 10.1299L17.246 15L22.121 19.8701C26.171 17.6001 27.547 16.8301 27.547 16.8301C28.262 16.4301 28.622 15.71 28.622 15Z" fill="#FFD500"/>
<path d="M27.547 16.8301C28.262 16.4301 28.622 15.71 28.622 15H17.246L22.121 19.8701C26.171 17.6001 27.547 16.8301 27.547 16.8301Z" fill="#FFAA00"/>
</g>
</svg>
