<svg width="41" height="37" viewBox="0 0 41 37" fill="none" xmlns="http://www.w3.org/2000/svg">
<path d="M13.22 36.27C28.315 36.27 36.57 22.4202 36.57 10.4102C36.57 10.0202 36.563 9.63023 36.547 9.24023C38.149 7.95023 39.542 6.34979 40.641 4.52979C39.17 5.24979 37.588 5.73996 35.928 5.95996C37.622 4.83996 38.923 3.06018 39.537 0.930176C37.951 1.98018 36.195 2.73014 34.325 3.14014C32.828 1.37014 30.696 0.27002 28.335 0.27002C23.803 0.27002 20.128 4.33986 20.128 9.35986C20.128 10.0699 20.2 10.7602 20.341 11.4302C13.52 11.0502 7.47198 7.43018 3.42398 1.93018C2.71898 3.28018 2.31299 4.84 2.31299 6.5C2.31299 9.65 3.76198 12.4398 5.96498 14.0698C4.61898 14.0198 3.35399 13.6102 2.24799 12.9302C2.24699 12.9702 2.24698 12.9998 2.24698 13.0498C2.24698 17.4498 5.07598 21.1202 8.83098 21.9502C8.14098 22.1602 7.41599 22.27 6.66699 22.27C6.13899 22.27 5.62498 22.2199 5.12498 22.1099C6.16898 25.7199 9.19899 28.3499 12.791 28.4199C9.98199 30.8599 6.44399 32.3101 2.59799 32.3101C1.93699 32.3101 1.28299 32.2699 0.640991 32.1899C4.27299 34.7599 8.58399 36.27 13.22 36.27Z" fill="#E4E4E4"/>
</svg>
